<svg version="1.1" id="Layer_1" xmlns="http://www.w3.org/2000/svg" xmlns:xlink="http://www.w3.org/1999/xlink" x="0px" y="0px"
	 width="100%" viewBox="0 0 227 261" enable-background="new 0 0 227 261" xml:space="preserve">
<path fill="#ffe8e8" opacity="1.000000" stroke="none" 
	d="
M118.000000,262.000000 
	C78.666672,262.000000 39.833340,262.000000 1.000005,262.000000 
	C1.000003,175.000000 1.000003,88.000015 1.000002,1.000017 
	C76.666656,1.000011 152.333313,1.000011 227.999969,1.000006 
	C227.999985,87.999977 227.999985,174.999954 228.000000,261.999969 
	C191.500000,262.000000 155.000000,262.000000 118.000000,262.000000 
M186.943756,92.436508 
	C186.615250,92.219276 186.286758,92.002045 185.728989,91.179123 
	C180.511810,85.717018 175.366119,80.159889 167.934250,77.036324 
	C165.289871,70.766319 162.651794,64.493652 159.998566,58.227398 
	C158.568146,54.849094 157.684189,50.790100 152.173782,51.275112 
	C149.280746,41.740719 146.426422,40.017204 138.234741,42.858318 
	C129.193405,45.994122 127.478058,52.945614 132.166885,61.016827 
	C138.546936,71.999260 146.770660,82.362686 144.341064,96.852898 
	C143.264587,103.273064 146.631638,110.393326 145.772156,116.904129 
	C143.939957,130.783554 138.070953,143.504196 129.014709,154.128021 
	C117.945869,167.112839 102.504875,172.311874 86.101837,173.888626 
	C73.681717,175.082504 61.108841,174.927139 48.606403,174.866348 
	C45.228771,174.849945 41.718376,173.315826 38.517738,171.911331 
	C32.443676,169.245926 26.137964,167.631546 23.188955,176.981354 
	C21.983568,180.803009 22.317608,186.008591 23.972698,189.671112 
	C29.674953,202.289505 38.942772,212.115158 52.099300,216.826996 
	C74.323883,224.786407 97.231567,228.278442 121.218803,224.720505 
	C132.043396,222.938385 142.428253,220.054428 152.109467,214.553253 
	C167.886841,205.588089 179.432983,192.698715 187.959991,176.991043 
	C197.938660,158.609283 200.585831,138.626114 198.826263,118.140175 
	C198.009033,108.625633 194.811920,99.500206 187.053711,92.981239 
	C187.053711,92.981239 187.174210,92.988617 186.943756,92.436508 
z"/>
<path fill="#473166" opacity="1.000000" stroke="none" 
	d="
M167.863480,77.734833 
	C175.366119,80.159889 180.511810,85.717018 185.835876,91.874100 
	C186.353241,92.708923 186.763718,92.848770 187.174210,92.988617 
	C187.174210,92.988617 187.053711,92.981239 186.808167,93.245911 
	C195.699051,111.713387 195.848663,130.784409 191.079025,149.956589 
	C181.913452,186.798752 160.471069,212.479431 122.846390,222.860519 
	C122.124413,223.059723 121.506432,223.635864 120.839935,224.036148 
	C97.231567,228.278442 74.323883,224.786407 52.099300,216.826996 
	C38.942772,212.115158 29.674953,202.289505 23.972698,189.671112 
	C22.317608,186.008591 21.983568,180.803009 23.188955,176.981354 
	C26.137964,167.631546 32.443676,169.245926 38.517738,171.911331 
	C41.718376,173.315826 45.228771,174.849945 48.606403,174.866348 
	C61.108841,174.927139 73.681717,175.082504 86.101837,173.888626 
	C102.504875,172.311874 117.945869,167.112839 129.014709,154.128021 
	C138.070953,143.504196 143.939957,130.783554 145.772156,116.904129 
	C146.631638,110.393326 143.264587,103.273064 144.341064,96.852898 
	C146.770660,82.362686 138.546936,71.999260 132.166885,61.016827 
	C127.478058,52.945614 129.193405,45.994122 138.234741,42.858318 
	C146.426422,40.017204 149.280746,41.740719 152.233353,51.985916 
	C153.892731,56.668583 154.946808,60.992577 157.226501,64.525764 
	C160.274567,69.249847 164.273102,73.360657 167.863480,77.734833 
M146.276489,55.314533 
	C145.430267,52.991627 144.584045,50.668724 143.503418,47.702362 
	C140.537949,49.583157 137.968567,51.212753 135.736481,52.628414 
	C140.217026,60.973820 144.664841,68.561691 148.381592,76.492203 
	C150.088913,80.135147 150.914627,84.416481 151.162857,88.468193 
	C151.594879,95.520142 151.210190,102.619164 151.289459,109.697090 
	C151.322769,112.670822 152.327744,115.773392 151.764389,118.592247 
	C146.692032,143.973358 135.532349,164.955032 109.882515,175.185532 
	C108.282410,175.823746 106.926926,177.075241 104.701057,177.962250 
	C93.919533,179.340790 83.138000,180.719315 71.380188,181.940659 
	C65.812630,181.761032 60.245068,181.581406 53.846806,181.220612 
	C51.291107,181.280182 48.735409,181.339767 45.360538,181.209000 
	C41.619747,179.949295 37.831860,178.811691 34.152615,177.392441 
	C31.036360,176.190369 28.132242,178.079010 28.557411,181.409790 
	C28.741991,182.855804 29.397785,184.263351 29.967524,185.635208 
	C36.545784,201.474792 48.881508,210.165527 65.896721,214.216629 
	C83.716797,218.279312 101.651810,220.739655 119.809875,216.762833 
	C173.308075,205.046143 195.892624,146.008408 184.475876,105.883362 
	C182.837570,100.125412 178.158035,95.232788 174.710678,89.459610 
	C174.426071,89.279388 174.141449,89.099167 173.539093,88.351898 
	C171.881836,87.254417 170.364853,85.727852 168.543472,85.132477 
	C159.868195,82.296684 155.282990,75.547768 151.607162,67.910316 
	C149.740265,64.031372 148.133713,60.027119 146.276489,55.314533 
z"/>
<path fill="#F9DC68" opacity="1.000000" stroke="none" 
	d="
M121.029373,224.378326 
	C121.506432,223.635864 122.124413,223.059723 122.846390,222.860519 
	C160.471069,212.479431 181.913452,186.798752 191.079025,149.956589 
	C195.848663,130.784409 195.699051,111.713387 186.812012,93.185669 
	C194.811920,99.500206 198.009033,108.625633 198.826263,118.140175 
	C200.585831,138.626114 197.938660,158.609283 187.959991,176.991043 
	C179.432983,192.698715 167.886841,205.588089 152.109467,214.553253 
	C142.428253,220.054428 132.043396,222.938385 121.029373,224.378326 
z"/>
<path fill="#F5D968" opacity="1.000000" stroke="none" 
	d="
M167.898865,77.385574 
	C164.273102,73.360657 160.274567,69.249847 157.226501,64.525764 
	C154.946808,60.992577 153.892731,56.668583 152.376282,52.341061 
	C157.684189,50.790100 158.568146,54.849094 159.998566,58.227398 
	C162.651794,64.493652 165.289871,70.766319 167.898865,77.385574 
z"/>
<path fill="#F9DC68" opacity="1.000000" stroke="none" 
	d="
M187.058990,92.712563 
	C186.763718,92.848770 186.353241,92.708923 185.950500,92.176941 
	C186.286758,92.002045 186.615250,92.219276 187.058990,92.712563 
z"/>
<path fill="#FDDF67" opacity="1.000000" stroke="none" 
	d="
M174.885956,89.939697 
	C178.158035,95.232788 182.837570,100.125412 184.475876,105.883362 
	C195.892624,146.008408 173.308075,205.046143 119.809875,216.762833 
	C101.651810,220.739655 83.716797,218.279312 65.444962,213.736908 
	C60.645409,209.316376 56.297611,205.375580 51.971989,200.997360 
	C52.272011,193.776031 54.526108,191.418335 61.326416,191.006638 
	C63.477833,190.876389 65.676498,190.808716 67.802536,191.093384 
	C81.894836,192.980286 95.612282,190.535309 109.635422,187.872772 
	C111.868591,188.163193 113.840118,188.636490 115.659676,188.296494 
	C125.892197,186.384445 134.163300,180.762268 142.047577,173.902435 
	C142.527969,173.488708 142.770096,173.215286 143.011108,172.976379 
	C143.010010,173.010910 142.941101,173.005753 143.164291,172.879593 
	C143.593246,172.484558 143.799011,172.215683 144.007645,171.978836 
	C144.010498,172.010849 143.946548,172.004349 144.169662,171.881500 
	C144.595963,171.491150 144.799149,171.223663 145.007599,170.984619 
	C145.012878,171.013046 144.956100,171.002060 145.179688,170.880783 
	C145.602386,170.489471 145.801498,170.219452 146.003113,169.976166 
	C146.005630,170.002930 145.957153,169.980103 146.318115,169.976318 
	C149.912415,166.992752 153.722321,164.436630 156.277924,160.958817 
	C166.619324,146.885635 171.784805,130.904312 169.026596,113.594559 
	C167.542374,104.279884 169.378525,96.948082 174.885956,89.939697 
z"/>
<path fill="#FCC53B" opacity="1.000000" stroke="none" 
	d="
M174.798309,89.699654 
	C169.378525,96.948082 167.542374,104.279884 169.026596,113.594559 
	C171.784805,130.904312 166.619324,146.885635 156.277924,160.958817 
	C153.722321,164.436630 149.912415,166.992752 146.419342,169.653214 
	C148.312714,166.377686 150.767563,163.582184 152.469879,160.385895 
	C153.146973,159.114548 152.157898,156.955811 151.927368,155.201080 
	C150.381958,155.739243 148.767883,156.142319 147.322372,156.877029 
	C146.675995,157.205551 146.390900,158.216385 145.903000,158.889389 
	C137.461929,170.533203 127.340889,179.757370 112.485214,182.251221 
	C109.406319,182.768082 108.239685,184.625275 109.303596,187.680069 
	C95.612282,190.535309 81.894836,192.980286 67.802536,191.093384 
	C65.676498,190.808716 63.477833,190.876389 61.326416,191.006638 
	C54.526108,191.418335 52.272011,193.776031 51.665611,200.800034 
	C46.116791,195.412537 45.171978,188.662292 46.179710,181.399338 
	C48.735409,181.339767 51.291107,181.280182 54.469479,181.597183 
	C60.805538,187.772720 66.587204,184.073578 72.356476,182.097855 
	C83.138000,180.719315 93.919533,179.340790 105.514999,178.060272 
	C135.621109,171.007736 151.456100,152.679001 159.022491,124.206520 
	C159.928711,120.796425 159.654083,116.945351 159.312790,113.357063 
	C158.574844,105.598183 156.847870,97.872177 159.909668,90.033844 
	C164.776855,89.573273 169.316849,89.246109 173.856827,88.918945 
	C174.141449,89.099167 174.426071,89.279388 174.798309,89.699654 
M164.182312,141.456024 
	C164.510422,140.174438 165.317169,138.782166 165.052490,137.637665 
	C164.672272,135.993454 163.511581,134.529724 162.684021,132.988968 
	C161.435852,134.031021 159.695740,134.831146 159.039993,136.164520 
	C157.593491,139.105850 156.429535,142.254028 155.681580,145.442429 
	C155.305695,147.044800 156.091431,148.919662 156.351852,150.671280 
	C158.060623,149.846588 160.227951,149.414795 161.358856,148.094971 
	C162.688492,146.543198 163.118744,144.220779 164.182312,141.456024 
z"/>
<path fill="#F9E2E0" opacity="1.000000" stroke="none" 
	d="
M159.582474,90.167236 
	C156.847870,97.872177 158.574844,105.598183 159.312790,113.357063 
	C159.654083,116.945351 159.928711,120.796425 159.022491,124.206520 
	C151.456100,152.679001 135.621109,171.007736 105.893295,178.099854 
	C106.926926,177.075241 108.282410,175.823746 109.882515,175.185532 
	C135.532349,164.955032 146.692032,143.973358 151.764389,118.592247 
	C152.327744,115.773392 151.322769,112.670822 151.289459,109.697090 
	C151.210190,102.619164 151.594879,95.520142 151.162857,88.468193 
	C150.914627,84.416481 150.088913,80.135147 148.381592,76.492203 
	C144.664841,68.561691 140.217026,60.973820 135.736481,52.628414 
	C137.968567,51.212753 140.537949,49.583157 143.503418,47.702362 
	C144.584045,50.668724 145.430267,52.991627 146.130157,55.964287 
	C143.837006,59.081783 144.837906,61.103401 146.248428,63.716488 
	C150.936783,72.401871 155.172943,81.331352 159.582474,90.167236 
z"/>
<path fill="#FAE3E2" opacity="1.000000" stroke="none" 
	d="
M45.770126,181.304169 
	C45.171978,188.662292 46.116791,195.412537 51.643440,201.237457 
	C56.297611,205.375580 60.645409,209.316376 65.083855,213.590179 
	C48.881508,210.165527 36.545784,201.474792 29.967524,185.635208 
	C29.397785,184.263351 28.741991,182.855804 28.557411,181.409790 
	C28.132242,178.079010 31.036360,176.190369 34.152615,177.392441 
	C37.831860,178.811691 41.619747,179.949295 45.770126,181.304169 
z"/>
<path fill="#F7DA6A" opacity="1.000000" stroke="none" 
	d="
M159.909668,90.033844 
	C155.172943,81.331352 150.936783,72.401871 146.248428,63.716488 
	C144.837906,61.103401 143.837006,59.081783 146.196655,56.346775 
	C148.133713,60.027119 149.740265,64.031372 151.607162,67.910316 
	C155.282990,75.547768 159.868195,82.296684 168.543472,85.132477 
	C170.364853,85.727852 171.881836,87.254417 173.697968,88.635422 
	C169.316849,89.246109 164.776855,89.573273 159.909668,90.033844 
z"/>
<path fill="#F3DCD8" opacity="1.000000" stroke="none" 
	d="
M71.868332,182.019257 
	C66.587204,184.073578 60.805538,187.772720 54.884830,181.687775 
	C60.245068,181.581406 65.812630,181.761032 71.868332,182.019257 
z"/>
<path fill="#483162" opacity="1.000000" stroke="none" 
	d="
M109.635422,187.872772 
	C108.239685,184.625275 109.406319,182.768082 112.485214,182.251221 
	C127.340889,179.757370 137.461929,170.533203 145.903000,158.889389 
	C146.390900,158.216385 146.675995,157.205551 147.322372,156.877029 
	C148.767883,156.142319 150.381958,155.739243 151.927368,155.201080 
	C152.157898,156.955811 153.146973,159.114548 152.469879,160.385895 
	C150.767563,163.582184 148.312714,166.377686 146.058380,169.656982 
	C145.957153,169.980103 146.005630,170.002930 145.742493,170.049164 
	C145.304916,170.397614 145.130508,170.699844 144.956100,171.002060 
	C144.956100,171.002060 145.012878,171.013046 144.746399,171.056824 
	C144.302124,171.401840 144.124329,171.703094 143.946548,172.004349 
	C143.946548,172.004349 144.010498,172.010849 143.745880,172.054626 
	C143.301208,172.400848 143.121155,172.703308 142.941101,173.005753 
	C142.941101,173.005753 143.010010,173.010910 142.735748,173.061371 
	C142.244095,173.422150 142.026688,173.732452 141.809296,174.042755 
	C134.163300,180.762268 125.892197,186.384445 115.659676,188.296494 
	C113.840118,188.636490 111.868591,188.163193 109.635422,187.872772 
z"/>
<path fill="#FCC53B" opacity="1.000000" stroke="none" 
	d="
M145.179688,170.880783 
	C145.130508,170.699844 145.304916,170.397614 145.739975,170.022400 
	C145.801498,170.219452 145.602386,170.489471 145.179688,170.880783 
z"/>
<path fill="#FCC53B" opacity="1.000000" stroke="none" 
	d="
M144.169662,171.881500 
	C144.124329,171.703094 144.302124,171.401840 144.741119,171.028381 
	C144.799149,171.223663 144.595963,171.491150 144.169662,171.881500 
z"/>
<path fill="#FCC53B" opacity="1.000000" stroke="none" 
	d="
M143.164291,172.879593 
	C143.121155,172.703308 143.301208,172.400848 143.743027,172.022614 
	C143.799011,172.215683 143.593246,172.484558 143.164291,172.879593 
z"/>
<path fill="#FCC53B" opacity="1.000000" stroke="none" 
	d="
M142.047577,173.902435 
	C142.026688,173.732452 142.244095,173.422150 142.736862,173.026855 
	C142.770096,173.215286 142.527969,173.488708 142.047577,173.902435 
z"/>
<path fill="#483160" opacity="1.000000" stroke="none" 
	d="
M164.060669,141.844299 
	C163.118744,144.220779 162.688492,146.543198 161.358856,148.094971 
	C160.227951,149.414795 158.060623,149.846588 156.351852,150.671295 
	C156.091431,148.919662 155.305695,147.044800 155.681580,145.442429 
	C156.429535,142.254028 157.593491,139.105850 159.039993,136.164520 
	C159.695740,134.831146 161.435852,134.031021 162.684021,132.988968 
	C163.511581,134.529724 164.672272,135.993454 165.052490,137.637665 
	C165.317169,138.782166 164.510422,140.174438 164.060669,141.844299 
z"/>
</svg>